<svg id="Layer_1" data-name="Layer 1" xmlns="http://www.w3.org/2000/svg" viewBox="0 0 144 144"><defs><style>.cls-1{fill:#6cc;}.cls-2{fill:#edea77;}.cls-3{fill:#ceefed;}.cls-4{fill:#333;}</style></defs><title>freedict</title><path class="cls-1" d="M26.3,23.37h0Z"/><path class="cls-1" d="M36.81,7.42h83.95V6.5H36.81c-5.23,0-13.55,4.56-13.55,10v1.31a9.25,9.25,0,0,0,.11,2.52l0.33,110.2a7,7,0,0,0,7,7h83a6.79,6.79,0,0,0,6.79-6.8V27.1H37a11.86,11.86,0,0,1-4.92-1.4h0a24.07,24.07,0,0,1-5.71-4,7.53,7.53,0,0,1-1.55-2c-0.13-.34-0.22-0.48-0.34-0.86a4.23,4.23,0,0,1-.29-1.08V16.47C24.19,11.65,32,7.42,36.81,7.42ZM26.07,23.37h0Z"/><path class="cls-2" d="M26.3,23.37h0Z"/><path class="cls-3" d="M38.46,82.94c0,17.71-3.67,33.2-9.47,44A61.84,61.84,0,0,0,47.71,82.53C47.71,64.89,40.49,50,28.84,38H28.25C34.48,50,38.46,64.48,38.46,82.94Z"/><path d="M58.33,84L57.9,85.2l-0.24,1a0.92,0.92,0,0,0,.43.79,4.4,4.4,0,0,0,1.65.23v1l-3.28-.1-2.85.1v-1a2,2,0,0,0,1.52-.45,7.56,7.56,0,0,0,1-1.87L64,65.14h1.82l7.85,19.8a8.56,8.56,0,0,0,.93,1.89,2.24,2.24,0,0,0,1.59.43v1l-4.07-.1-3.84.1v-1a4.34,4.34,0,0,0,1.85-.3,2,2,0,0,0,.3-0.23,1,1,0,0,0,.23-0.7,3.27,3.27,0,0,0-.21-1l-0.4-1L68.3,79.54H60Zm2.16-5.6h7.32L64.12,69Z"/><path d="M76.86,79.64h8v1.79h-8V79.64Z"/><path d="M89.11,65.14l9,0.07h5.36l4-.1v1.16L91.05,86.65h11.2q3.28,0,4.22-1.13t0.94-4.34v-0.5h1.09v7.55l-11.29-.1H91.06q-0.76,0-2.3,0t-2.33,0v-1l16.69-20.66H94.8q-3,0-3.49.61a11.57,11.57,0,0,0-1.21,3.69h-1V65.14Z"/><rect class="cls-4" x="32.62" y="11.86" width="85.54" height="2.15"/><rect class="cls-4" x="32.62" y="19.38" width="85.54" height="2.61"/></svg>