<svg id="Layer_1" data-name="Layer 1" xmlns="http://www.w3.org/2000/svg" viewBox="0 0 48 48"><defs><style>.cls-1{fill:#6cc;}.cls-2{fill:#edea77;}.cls-3{fill:#ceefed;}.cls-4{fill:#333;}</style></defs><title>freedict</title><path class="cls-1" d="M9.7,8.78h0Z"/><path class="cls-1" d="M13,3.79H39.26V3.5H13c-1.64,0-4.24,1.43-4.24,3.12V7a2.89,2.89,0,0,0,0,.79l0.1,34.49a2.19,2.19,0,0,0,2.19,2.19h26a2.13,2.13,0,0,0,2.12-2.13V9.95H13.05a3.71,3.71,0,0,1-1.54-.44h0A7.53,7.53,0,0,1,9.72,8.26a2.36,2.36,0,0,1-.48-0.62c0-.11-0.07-0.15-0.11-0.27A1.32,1.32,0,0,1,9,7V6.62C9,5.11,11.5,3.79,13,3.79Zm-3.36,5h0Z"/><path class="cls-2" d="M9.7,8.78h0Z"/><path class="cls-3" d="M13,27.25a30.19,30.19,0,0,1-3,13.85,19.67,19.67,0,0,0,5.86-14C15.94,21.55,13.68,17,10,13H9.85A31.31,31.31,0,0,1,13,27.25Z"/><path d="M19.72,27.75l-0.14.38-0.07.32a0.29,0.29,0,0,0,.13.25,1.38,1.38,0,0,0,.52.07v0.31l-1,0-0.89,0V28.77a0.63,0.63,0,0,0,.48-0.14A2.37,2.37,0,0,0,19,28l2.47-6.2h0.57L24.53,28a2.68,2.68,0,0,0,.29.59,0.7,0.7,0,0,0,.5.13v0.31l-1.27,0-1.2,0V28.77a1.36,1.36,0,0,0,.58-0.09l0.09-.07a0.32,0.32,0,0,0,.07-0.22,1,1,0,0,0-.06-0.32l-0.13-.32-0.55-1.39H20.25ZM20.4,26h2.29l-1.15-2.94Z"/><path d="M25.52,26.39H28v0.56H25.52V26.39Z"/><path d="M29.35,21.85l2.82,0h1.68l1.26,0v0.36L30,28.59h3.5a1.75,1.75,0,0,0,1.32-.35,2.22,2.22,0,0,0,.3-1.36V26.72h0.34v2.36l-3.53,0H30l-0.72,0-0.73,0V28.76l5.22-6.47h-2.6a1.76,1.76,0,0,0-1.09.19,3.62,3.62,0,0,0-.38,1.16H29.35V21.85Z"/><rect class="cls-4" x="11.67" y="5.18" width="26.77" height="0.67"/><rect class="cls-4" x="11.67" y="7.53" width="26.77" height="0.82"/></svg>