<svg id="Layer_1" data-name="Layer 1" xmlns="http://www.w3.org/2000/svg" viewBox="0 0 2479.42 1024"><defs><style>.cls-1{fill:#1a1a1a;}.cls-2{fill:#6cc;}.cls-3{fill:#edea77;}.cls-4{fill:#ceefed;}.cls-5{fill:#333;}</style></defs><title>freedict</title><path class="cls-1" d="M1087.34,365.61v75.53h-12.89q-7.1-44-14.44-50.86t-48.64-6.89h-52V509.12l93.29-.45,8-39.1h10.68v96h-10.68l-8-39.1H959.38v89.45q0,31,4.88,38.75t34.66,7.75v13.33l-64-1.33-58.64,1.33V662.39q28.87,0,34.21-8t5.33-38.65V425.15q0-29.32-5.55-38.2t-34-8.89V365.17l32.87,1.33h27.1Z"/><path class="cls-1" d="M1178,509.12v112q0,26.66,4.89,34.66t26.21,8v12l-52.87-1.33-50.2,1.33v-12q22.21,0,26.88-8t4.66-34.29V520.32q0-26.27-4.89-33.84-4-8-26.65-8V466.91l72-4.44v34.65l35.55-26.65a45.58,45.58,0,0,1,25.76-8,35.64,35.64,0,0,1,11.34,2.22,20.89,20.89,0,0,1,10.66,8.67,25.11,25.11,0,0,1,4.22,14q0,8.9-4,12.43l-7.55,4.89-7.55,1.78q-8,0-13.78-8.45l-4.89-5.77-5.33-2.67-6.66-.89q-8.9,0-19.1,7.1Z"/><path class="cls-1" d="M1459.18,556.21H1313.9a263.82,263.82,0,0,0,1.33,27.67,148.77,148.77,0,0,0,4.89,25,58.15,58.15,0,0,0,26.44,35.7q20.21,12.51,41.54,12.5,15.55,0,34-8.31t37.54-32.12l4.45,11.19q-20,25.95-47.32,39.15t-54.42,13.19l-18.66-1.33q-11.11,0-26.44-8.44A70.57,70.57,0,0,1,1291.69,646a129.49,129.49,0,0,1-12.43-32.87q-1.79-8.43-2.67-16.44a164.55,164.55,0,0,1-.89-18.22q0-38.65,12.43-62.42T1321,479.35q20.43-12.88,34.65-15.11l16.88-1.77h5.34a102.54,102.54,0,0,1,35.54,6.19q17.33,5.31,30.21,20.79,9.33,12.38,12.44,30.06,1.32,8.41,2.22,17.69T1459.18,556.21Zm-53.81-12q8.92,0,11.37-2.89t2.46-10.89q0-19.54-7.59-32.87-6.7-13.33-19.18-17.77T1371,475.35l-14.73,1.33a27.38,27.38,0,0,0-7.14,2.67,85.74,85.74,0,0,0-10.26,6.22q-10.27,6.22-17.62,23.1a87.9,87.9,0,0,0-7.36,35.55h91.47Z"/><path class="cls-1" d="M1669.33,556.21H1524a263.82,263.82,0,0,0,1.33,27.67,148.77,148.77,0,0,0,4.89,25,58.15,58.15,0,0,0,26.44,35.7q20.21,12.51,41.54,12.5,15.55,0,34-8.31t37.54-32.12l4.45,11.19q-20,25.95-47.32,39.15t-54.42,13.19l-18.66-1.33q-11.11,0-26.44-8.44A70.57,70.57,0,0,1,1501.84,646a129.49,129.49,0,0,1-12.43-32.87q-1.79-8.43-2.67-16.44a164.55,164.55,0,0,1-.89-18.22q0-38.65,12.43-62.42t32.88-36.65q20.43-12.88,34.65-15.11l16.88-1.77H1588a102.54,102.54,0,0,1,35.54,6.19q17.33,5.31,30.21,20.79,9.33,12.38,12.44,30.06,1.32,8.41,2.22,17.69T1669.33,556.21Zm-53.81-12q8.92,0,11.37-2.89t2.46-10.89q0-19.54-7.59-32.87-6.7-13.33-19.18-17.77t-21.41-4.44l-14.73,1.33a27.38,27.38,0,0,0-7.14,2.67,85.74,85.74,0,0,0-10.26,6.22q-10.27,6.22-17.62,23.1a87.9,87.9,0,0,0-7.36,35.55h91.47Z"/><path class="cls-1" d="M1923.45,661.94v10.22l-68.86,8V648.62a157.61,157.61,0,0,1-39.32,23q-21.2,8.55-40.19,8.55-14.14,0-32-6.67a51.73,51.73,0,0,1-27.39-22.93,109.25,109.25,0,0,1-13-34.06l-3.08-20.92-0.45-12.92a190,190,0,0,1,8-54.75q8-26.71,27.55-43.18,11.54-10.24,30.65-16.47a146.09,146.09,0,0,1,40-5.79q30.21,0,49.31,8.89V401.6q0-26.66-4.22-34t-26.88-7.33v-12l71.53-4.45V615.29q0,29.33,6,38T1923.45,661.94ZM1756.4,499.34q-7.56,10.23-12.43,28a164.86,164.86,0,0,0-2.67,16.88,182,182,0,0,0-.89,19.1V574.2a107.53,107.53,0,0,0,1.33,13.55q1.34,9.33,2.44,14a124.28,124.28,0,0,0,4.22,13.1,62.87,62.87,0,0,0,12.88,23.55,46.53,46.53,0,0,0,21.77,14.22q6.21,1.79,10.89,2.67a52.74,52.74,0,0,0,10,.89,64.9,64.9,0,0,0,20.21-3.11,50.93,50.93,0,0,0,15.33-7.55q7.11-4,9.78-7.55l5.33-5.78V520.67q0-9.77-.44-14a36.62,36.62,0,0,0-2.89-10q-2.45-5.77-12-11.33a84.73,84.73,0,0,0-18.66-8.22,61.11,61.11,0,0,0-17.1-2.67,59.64,59.64,0,0,0-25.33,5.56Q1766.18,485.58,1756.4,499.34Z"/><path class="cls-1" d="M1986.53,674.39l-50.2,1.33v-12q22.21,0,26.88-8t4.66-34.29V520.32q0-20.93-2.67-31.39t-28.88-10.47V466.91l72-4.44V621.07q0,26.66,4.89,34.66t26.21,8v12Zm1.33-308.77q10.67,0,17.33,6.89t6.66,18q0,9.33-7.11,16.67a23.24,23.24,0,0,1-17.32,7.33,23.53,23.53,0,0,1-17.32-7.11,24.8,24.8,0,0,1-5.33-7.55,25.14,25.14,0,0,1-1.78-10.21q0-10.67,6.89-17.33T1987.86,365.61Z"/><path class="cls-1" d="M2238.89,630.4l6.66,5.33q-20.44,22.66-44.43,33.55t-48,10.88q-4.45,0-9.78-.44t-15.55-2.22q-10.22-1.77-24.44-12.22t-25.32-32.21q-9.78-22.21-9.78-56,0-14.65.67-20.44t2.89-16a129.42,129.42,0,0,1,14.66-36.21q10.67-18.44,32-30.22a91.53,91.53,0,0,1,44.87-11.77q24.89,0,39.1,4.89,15.09,4.44,22.88,13.54a31,31,0,0,1,7.77,20.66,25.41,25.41,0,0,1-1.56,8.44q-1.56,4.45-6.88,9.34a18.89,18.89,0,0,1-11.55,4q-7.11,0-10.44-3.11t-5.56-9.77l-1.77-8.89a31.33,31.33,0,0,0-3.33-7.78,44.16,44.16,0,0,0-6-8q-3.56-3.77-12-6.89a46.51,46.51,0,0,0-16-3.11,45.66,45.66,0,0,0-7.1.44q-2.66.45-14.88,2.89t-22.88,26a140.94,140.94,0,0,0-9.78,52.86,172.64,172.64,0,0,0,4,37.55,99.16,99.16,0,0,0,12.88,32,63.82,63.82,0,0,0,23.33,22q14.43,8,29.1,8,17.77,0,31.32-5.33T2238.89,630.4Z"/><path class="cls-1" d="M2344.17,652.17a31.31,31.31,0,0,0,10.22,3.56l12.88,0.88q4.88,0,10.22-.44a78.68,78.68,0,0,0,11.11-1.77l3.11,9.33q-8.45,4-16,6.89t-12.44,4.66q-15.55,4.44-27.54,4.44a50.19,50.19,0,0,1-26.21-6.89q-11.56-6.88-14.44-19.1t-2.89-33.1V480.68h-35.54v-12q30.21-2.67,35.32-6.45t18-34L2320.18,402h10.66v64.86l53.76,1.78v10.66L2332.18,482V622.41q0,13.33,2.67,19.55A22.07,22.07,0,0,0,2344.17,652.17Z"/><path class="cls-2" d="M108.09,188.07h-1.53a4,4,0,0,1-.86-0.06C106.5,188.07,107.3,188.07,108.09,188.07Z"/><path class="cls-2" d="M178.12,81.83H737.27V75.71H178.12c-34.86,0-90.24,30.39-90.24,66.41v8.7c0,3.55-.7,14.58.77,16.79l2.17,734a46.67,46.67,0,0,0,46.68,46.68h553A45.23,45.23,0,0,0,735.68,903V212.94H179.53c-9.62,0-21.14-3.61-32.78-9.31-0.06,0-.12-0.06-0.18-0.06a160.31,160.31,0,0,1-38-26.53c-4-4.78-8.29-7.93-10.31-13.26-0.86-2.27-1.46-3.22-2.3-5.74S94,152.72,94,150.82v-8.7C94,110,146.38,81.83,178.12,81.83ZM106.56,188.07a4,4,0,0,1-.86-0.06c0.8,0.06,1.59.06,2.39,0.06h-1.53Z"/><path class="cls-3" d="M108.09,188.07h-1.53a4,4,0,0,1-.86-0.06C106.5,188.07,107.3,188.07,108.09,188.07Z"/><path class="cls-4" d="M189.11,584c0,118-24.44,221.6-63.05,293.35C203,800.94,250.67,698.13,250.67,581c0-117.52-48.05-214.26-125.67-297.26h-3.92C162.56,366.79,189.11,461,189.11,584Z"/><path d="M321.46,591.77l-2.91,8.15L317,606.75a6.13,6.13,0,0,0,2.87,5.29q3.52,1.54,11,1.54v6.61L309,619.53l-19,.66v-6.61q7.49,0,10.14-3t6.62-12.46l52.48-131.86h12.13L423.7,598.14q3.75,9.48,6.17,12.57,2.86,2.87,10.58,2.87v6.61l-27.12-.66-25.58.66v-6.61q8.38,0,12.35-2a13.24,13.24,0,0,0,2-1.55,6.83,6.83,0,0,0,1.54-4.65,21.8,21.8,0,0,0-1.37-6.87l-2.67-6.74-11.72-29.58H332.76Zm14.37-37.3h48.74L360,491.93Z"/><path d="M444.86,562.86h53.36v11.91H444.86V562.86Z"/><path d="M526.45,466.28l60,0.44h35.72l26.9-.66v7.74L539.4,609.61H614q21.84,0,28.13-7.5t6.29-28.89v-3.31h7.28v50.28l-75.19-.66h-41q-5.07,0-15.33.33t-15.55.33v-6.84l111.14-137.6H564.38q-19.85,0-23.26,4.08t-8,24.59h-6.61V466.28Z"/><rect class="cls-5" x="150.16" y="111.44" width="569.76" height="14.29"/><rect class="cls-5" x="150.16" y="161.48" width="569.76" height="17.36"/></svg>