<svg id="Layer_1" data-name="Layer 1" xmlns="http://www.w3.org/2000/svg" viewBox="0 0 72 72"><defs><style>.cls-1{fill:#6cc;}.cls-2{fill:#edea77;}.cls-3{fill:#ceefed;}.cls-4{fill:#333;}</style></defs><title>freedict</title><path class="cls-1" d="M14.67,13.3h0Z"/><path class="cls-1" d="M19.58,5.86H58.76V5.43H19.58c-2.44,0-6.32,2.13-6.32,4.65v0.61a4.32,4.32,0,0,0,.05,1.18L13.46,63.3a3.27,3.27,0,0,0,3.27,3.27H55.48a3.17,3.17,0,0,0,3.17-3.17V15h-39a5.54,5.54,0,0,1-2.3-.65h0a11.23,11.23,0,0,1-2.67-1.86A3.51,3.51,0,0,1,14,11.6c-0.06-.16-0.1-0.23-0.16-0.4a2,2,0,0,1-.13-0.51V10.08C13.68,7.83,17.35,5.86,19.58,5.86Zm-5,7.44h0Z"/><path class="cls-2" d="M14.67,13.3h0Z"/><path class="cls-3" d="M20.25,41c0,8.27-1.71,15.53-4.42,20.56a29,29,0,0,0,8.73-20.77C24.56,32.6,21.2,26,15.76,20H15.48A45.91,45.91,0,0,1,20.25,41Z"/><path d="M29.62,41.59l-0.2.57-0.11.48a0.43,0.43,0,0,0,.2.37,2.05,2.05,0,0,0,.77.11v0.46l-1.53,0-1.33,0V43.12a0.94,0.94,0,0,0,.71-0.21A3.53,3.53,0,0,0,28.6,42l3.68-9.24h0.85L36.79,42a4,4,0,0,0,.43.88,1,1,0,0,0,.74.2v0.46l-1.9,0-1.79,0V43.12A2,2,0,0,0,35.13,43l0.14-.11a0.48,0.48,0,0,0,.11-0.33,1.53,1.53,0,0,0-.1-0.48l-0.19-.47-0.82-2.07H30.41Zm1-2.61H34l-1.72-4.38Z"/><path d="M38.27,39.56H42V40.4H38.27V39.56Z"/><path d="M44,32.8l4.2,0h2.5l1.89,0v0.54l-7.68,9.52h5.23a2.61,2.61,0,0,0,2-.53,3.31,3.31,0,0,0,.44-2V40.06H53v3.52l-5.27,0H44.9l-1.07,0-1.09,0V43.1l7.79-9.64H46.64a2.62,2.62,0,0,0-1.63.29,5.4,5.4,0,0,0-.56,1.72H44V32.8Z"/><rect class="cls-4" x="17.62" y="7.93" width="39.93" height="1"/><rect class="cls-4" x="17.62" y="11.44" width="39.93" height="1.22"/></svg>