<svg id="Layer_1" data-name="Layer 1" xmlns="http://www.w3.org/2000/svg" viewBox="0 0 1147.17 512"><defs><style>.cls-1{fill:#1a1a1a;}.cls-2{fill:#6cc;}.cls-3{fill:#edea77;}.cls-4{fill:#ceefed;}.cls-5{fill:#333;}</style></defs><title>freedict</title><path class="cls-1" d="M501.94,187.17v35.51h-6.06q-3.34-20.68-6.79-23.91t-22.87-3.24H441.78v59.12l43.86-.21,3.76-18.38h5v45.12h-5l-3.76-18.38H441.78v42.06q0,14.57,2.29,18.22t16.3,3.64V333l-30.08-.63-27.57.63v-6.27q13.57,0,16.08-3.76t2.51-18.17V215.16q0-13.79-2.61-18t-16-4.18V187l15.46,0.63h12.74Z"/><path class="cls-1" d="M544.55,254.65v52.64q0,12.53,2.3,16.29t12.32,3.76V333l-24.86-.63-23.6.63v-5.64q10.44,0,12.64-3.77t2.19-16.12V259.91q0-12.35-2.3-15.91-1.88-3.77-12.53-3.77V234.8l33.84-2.09V249l16.71-12.53a21.43,21.43,0,0,1,12.11-3.76,16.76,16.76,0,0,1,5.33,1,9.82,9.82,0,0,1,5,4.08,11.8,11.8,0,0,1,2,6.58q0,4.18-1.88,5.85l-3.55,2.3-3.55.84q-3.76,0-6.48-4l-2.3-2.71-2.51-1.25-3.13-.42q-4.18,0-9,3.34Z"/><path class="cls-1" d="M676.77,276.79H608.47a124,124,0,0,0,.63,13,70,70,0,0,0,2.3,11.75,27.34,27.34,0,0,0,12.43,16.78,36.67,36.67,0,0,0,19.53,5.88,39.23,39.23,0,0,0,16-3.91q8.66-3.91,17.65-15.1l2.09,5.26a62,62,0,0,1-22.25,18.41,58.44,58.44,0,0,1-25.59,6.2l-8.78-.63q-5.22,0-12.43-4A33.18,33.18,0,0,1,598,319a60.88,60.88,0,0,1-5.85-15.46q-0.84-4-1.25-7.73a77.37,77.37,0,0,1-.42-8.56q0-18.17,5.85-29.35a43.89,43.89,0,0,1,15.46-17.23q9.6-6.06,16.29-7.1l7.94-.83h2.51a48.21,48.21,0,0,1,16.71,2.91,29.64,29.64,0,0,1,14.2,9.77,32.41,32.41,0,0,1,5.85,14.13q0.62,4,1,8.32T676.77,276.79Zm-25.3-5.64q4.19,0,5.35-1.36t1.16-5.12q0-9.19-3.57-15.46a16,16,0,0,0-9-8.36,31,31,0,0,0-10.07-2.09l-6.92.63a12.87,12.87,0,0,0-3.36,1.25,40.31,40.31,0,0,0-4.82,2.93q-4.83,2.93-8.29,10.86a41.33,41.33,0,0,0-3.46,16.71h43Z"/><path class="cls-1" d="M775.58,276.79H707.27a124,124,0,0,0,.63,13,70,70,0,0,0,2.3,11.75,27.34,27.34,0,0,0,12.43,16.78,36.67,36.67,0,0,0,19.53,5.88,39.23,39.23,0,0,0,16-3.91q8.66-3.91,17.65-15.1l2.09,5.26a62,62,0,0,1-22.25,18.41,58.44,58.44,0,0,1-25.59,6.2l-8.78-.63q-5.22,0-12.43-4a33.18,33.18,0,0,1-12-11.49A60.88,60.88,0,0,1,691,303.52q-0.84-4-1.25-7.73a77.37,77.37,0,0,1-.42-8.56q0-18.17,5.85-29.35a43.89,43.89,0,0,1,15.46-17.23q9.6-6.06,16.29-7.1l7.94-.83h2.51a48.21,48.21,0,0,1,16.71,2.91,29.64,29.64,0,0,1,14.2,9.77,32.41,32.41,0,0,1,5.85,14.13q0.62,4,1,8.32T775.58,276.79Zm-25.3-5.64q4.19,0,5.35-1.36t1.16-5.12q0-9.19-3.57-15.46a16,16,0,0,0-9-8.36,31,31,0,0,0-10.07-2.09l-6.92.63a12.87,12.87,0,0,0-3.36,1.25,40.31,40.31,0,0,0-4.82,2.93q-4.83,2.93-8.29,10.86a41.33,41.33,0,0,0-3.46,16.71h43Z"/><path class="cls-1" d="M895.06,326.5v4.8l-32.38,3.76V320.23A74.1,74.1,0,0,1,844.19,331a50.62,50.62,0,0,1-18.9,4,43.71,43.71,0,0,1-15.06-3.14,24.32,24.32,0,0,1-12.88-10.78,51.37,51.37,0,0,1-6.13-16l-1.45-9.84-0.21-6.07a89.33,89.33,0,0,1,3.76-25.74,41.28,41.28,0,0,1,13-20.3,40.26,40.26,0,0,1,14.41-7.75,68.69,68.69,0,0,1,18.8-2.72q14.2,0,23.19,4.18v-32.8q0-12.53-2-16t-12.64-3.45V179l33.63-2.09V304.57q0,13.79,2.82,17.86T895.06,326.5ZM816.51,250a40.06,40.06,0,0,0-5.85,13.16,77.51,77.51,0,0,0-1.25,7.94,85.58,85.58,0,0,0-.42,9v5.12a50.56,50.56,0,0,0,.63,6.37q0.63,4.39,1.15,6.58a58.43,58.43,0,0,0,2,6.16,29.56,29.56,0,0,0,6.06,11.07A21.88,21.88,0,0,0,829,322.11q2.92,0.84,5.12,1.25a24.8,24.8,0,0,0,4.7.42,30.52,30.52,0,0,0,9.5-1.46,24,24,0,0,0,7.21-3.55,14.92,14.92,0,0,0,4.6-3.55l2.51-2.72V260.08q0-4.59-.21-6.58a17.22,17.22,0,0,0-1.36-4.7q-1.15-2.71-5.64-5.33a39.84,39.84,0,0,0-8.78-3.87,28.73,28.73,0,0,0-8-1.25A28,28,0,0,0,826.75,241,26.5,26.5,0,0,0,816.51,250Z"/><path class="cls-1" d="M924.72,332.35l-23.6.63v-5.64q10.44,0,12.64-3.77t2.19-16.12V259.91q0-9.84-1.25-14.76t-13.58-4.92V234.8L935,232.71v74.57q0,12.53,2.3,16.29t12.32,3.76V333Zm0.63-145.18a10.84,10.84,0,0,1,8.15,3.24,11.67,11.67,0,0,1,3.13,8.46A11.52,11.52,0,0,1,917,206.81a11.66,11.66,0,0,1-2.51-3.55,11.82,11.82,0,0,1-.84-4.8,10.82,10.82,0,0,1,3.24-8.15A11.65,11.65,0,0,1,925.34,187.17Z"/><path class="cls-1" d="M1043.37,311.67l3.13,2.51a63.72,63.72,0,0,1-20.89,15.77,54.23,54.23,0,0,1-22.56,5.11q-2.09,0-4.6-.21t-7.31-1q-4.8-.83-11.49-5.74t-11.9-15.14q-4.6-10.44-4.6-26.32,0-6.89.31-9.61t1.36-7.52a60.85,60.85,0,0,1,6.89-17,38.11,38.11,0,0,1,15-14.21,43,43,0,0,1,21.1-5.53q11.7,0,18.39,2.3,7.1,2.09,10.76,6.37a14.59,14.59,0,0,1,3.65,9.72,12,12,0,0,1-.73,4,11.45,11.45,0,0,1-3.23,4.39,8.88,8.88,0,0,1-5.43,1.88q-3.34,0-4.91-1.46a11,11,0,0,1-2.61-4.59l-0.83-4.18a14.73,14.73,0,0,0-1.57-3.66,20.76,20.76,0,0,0-2.82-3.76,14.92,14.92,0,0,0-5.64-3.24,21.87,21.87,0,0,0-7.52-1.46,21.47,21.47,0,0,0-3.34.21q-1.25.21-7,1.36t-10.76,12.22a66.27,66.27,0,0,0-4.6,24.85,81.17,81.17,0,0,0,1.88,17.65,46.62,46.62,0,0,0,6.06,15,30,30,0,0,0,11,10.34,28,28,0,0,0,13.68,3.76,40,40,0,0,0,14.72-2.51Q1033.34,319.4,1043.37,311.67Z"/><path class="cls-1" d="M1092.87,321.91a14.72,14.72,0,0,0,4.8,1.67l6.06,0.42q2.3,0,4.8-.21a37,37,0,0,0,5.22-.83l1.46,4.39q-4,1.88-7.52,3.24t-5.85,2.19a48,48,0,0,1-13,2.09,23.6,23.6,0,0,1-12.32-3.24,13.89,13.89,0,0,1-6.79-9,70.35,70.35,0,0,1-1.36-15.56v-65.8h-16.71v-5.64q14.2-1.26,16.61-3t8.46-16l4.8-12.32h5v30.5l25.28,0.84v5l-24.65,1.25v66q0,6.27,1.25,9.19A10.38,10.38,0,0,0,1092.87,321.91Z"/><path class="cls-2" d="M41.53,103.7H40.81a1.9,1.9,0,0,1-.4,0C40.78,103.7,41.16,103.7,41.53,103.7Z"/><path class="cls-2" d="M74.46,53.75h262.9V50.87H74.46C58.07,50.87,32,65.16,32,82.09v4.09c0,1.67-.33,6.86.36,7.89l1,345.11a21.94,21.94,0,0,0,21.95,21.95h260a21.27,21.27,0,0,0,21.26-21.29V115.39H75.12c-4.52,0-9.94-1.7-15.41-4.38l-0.09,0A75.37,75.37,0,0,1,41.73,98.51c-1.87-2.25-3.9-3.73-4.85-6.24-0.4-1.07-.68-1.52-1.08-2.7a13.25,13.25,0,0,1-.9-3.39V82.09C34.91,67,59.54,53.75,74.46,53.75ZM40.81,103.7a1.9,1.9,0,0,1-.4,0c0.37,0,.75,0,1.12,0H40.81Z"/><path class="cls-3" d="M41.53,103.7H40.81a1.9,1.9,0,0,1-.4,0C40.78,103.7,41.16,103.7,41.53,103.7Z"/><path class="cls-4" d="M79.62,289.91c0,55.47-11.49,104.17-29.64,137.9,36.19-35.94,58.59-84.25,58.59-139.3,0-55.25-22.59-100.73-59.09-139.73H47.64C67.14,187.79,79.62,232.09,79.62,289.91Z"/><path d="M141.85,293.51l-1.37,3.83-0.74,3.21a2.88,2.88,0,0,0,1.35,2.49,13.77,13.77,0,0,0,5.18.72v3.11L136,306.56l-8.92.31v-3.11q3.52,0,4.77-1.4A23.69,23.69,0,0,0,135,296.5l24.67-62h5.7l24.57,62a26.82,26.82,0,0,0,2.9,5.91q1.35,1.35,5,1.35v3.11L185,306.56l-12,.31v-3.11a13.58,13.58,0,0,0,5.81-.94,6.23,6.23,0,0,0,.93-0.73,3.21,3.21,0,0,0,.73-2.19,10.25,10.25,0,0,0-.64-3.23l-1.26-3.17-5.51-13.91H147.16ZM148.61,276h22.92L160,246.56Z"/><path d="M199.87,279.91H225v5.6H199.87v-5.6Z"/><path d="M238.23,234.5l28.2,0.21h16.8l12.65-.31V238l-51.56,63.85h35.06q10.27,0,13.23-3.53t3-13.58v-1.56H299v23.64l-35.35-.31H244.35q-2.39,0-7.21.15t-7.31.16v-3.21L282.09,239h-26q-9.33,0-10.94,1.92t-3.78,11.56h-3.11V234.5Z"/><rect class="cls-5" x="61.31" y="67.67" width="267.88" height="6.72"/><rect class="cls-5" x="61.31" y="91.2" width="267.88" height="8.16"/></svg>