<svg id="Layer_1" data-name="Layer 1" xmlns="http://www.w3.org/2000/svg" viewBox="0 0 256 256"><defs><style>.cls-1{fill:#6cc;}.cls-2{fill:#edea77;}.cls-3{fill:#ceefed;}.cls-4{fill:#333;}</style></defs><title>freedict</title><path class="cls-1" d="M47.33,42.16H46.93a1.07,1.07,0,0,1-.23,0C46.91,42.16,47.12,42.16,47.33,42.16Z"/><path class="cls-1" d="M65.89,14H214.07V12.38H65.89C56.65,12.38,42,20.43,42,30v2.31c0,0.94-.19,3.86.2,4.45l0.58,194.51a12.37,12.37,0,0,0,12.37,12.37H201.66a12,12,0,0,0,12-12V48.75H66.26a20.93,20.93,0,0,1-8.69-2.47l0,0a42.48,42.48,0,0,1-10.08-7c-1.06-1.27-2.2-2.1-2.73-3.51-0.23-.6-0.39-0.85-0.61-1.52a7.47,7.47,0,0,1-.51-1.91V30C43.6,21.47,57.48,14,65.89,14Zm-19,28.15a1.07,1.07,0,0,1-.23,0c0.21,0,.42,0,0.63,0H46.93Z"/><path class="cls-2" d="M47.33,42.16H46.93a1.07,1.07,0,0,1-.23,0C46.91,42.16,47.12,42.16,47.33,42.16Z"/><path class="cls-3" d="M68.8,147.33c0,31.26-6.48,58.6-16.71,77.62,20.4-20.26,33-47.32,33-78.35S72.38,89,51.81,68h-1C61.77,89,68.8,114.74,68.8,147.33Z"/><path d="M103.88,149.14l-0.77,2.16-0.42,1.81a1.62,1.62,0,0,0,.76,1.4,7.76,7.76,0,0,0,2.92.41v1.75l-5.78-.18-5,.18v-1.75a3.54,3.54,0,0,0,2.69-.79,13.35,13.35,0,0,0,1.75-3.3l13.91-34.94h3.21L131,150.83a15.11,15.11,0,0,0,1.64,3.33,4,4,0,0,0,2.8.76v1.75l-7.19-.18-6.78.18v-1.75a7.65,7.65,0,0,0,3.27-.53,3.51,3.51,0,0,0,.53-0.41,1.81,1.81,0,0,0,.41-1.23,5.78,5.78,0,0,0-.36-1.82l-0.71-1.79-3.11-7.84H106.87Zm3.81-9.88H120.6l-6.51-16.58Z"/><path d="M136.58,141.48h14.14v3.16H136.58v-3.16Z"/><path d="M158.2,115.88L174.09,116h9.47l7.13-.18v2.05l-29.06,36h19.76q5.79,0,7.45-2t1.67-7.65v-0.88h1.93v13.32l-19.93-.18H161.65q-1.34,0-4.06.09t-4.12.09v-1.81l29.45-36.46H168.25q-5.26,0-6.17,1.08T160,126H158.2V115.88Z"/><rect class="cls-4" x="58.48" y="21.85" width="150.99" height="3.79"/><rect class="cls-4" x="58.48" y="35.11" width="150.99" height="4.6"/></svg>