<svg id="Layer_1" data-name="Layer 1" xmlns="http://www.w3.org/2000/svg" viewBox="0 0 128 128"><defs><style>.cls-1{fill:#6cc;}.cls-2{fill:#edea77;}.cls-3{fill:#ceefed;}.cls-4{fill:#333;}</style></defs><title>freedict</title><path class="cls-1" d="M23.92,21.35h0Z"/><path class="cls-1" d="M33.14,7.37h73.62V6.56H33.14c-4.59,0-11.88,4-11.88,8.74v1.15a8.11,8.11,0,0,0,.1,2.21l0.29,96.64a6.14,6.14,0,0,0,6.15,6.15h72.8a6,6,0,0,0,6-6V24.63H33.33A10.4,10.4,0,0,1,29,23.4h0a21.11,21.11,0,0,1-5-3.49,6.6,6.6,0,0,1-1.36-1.75c-0.11-.3-0.19-0.42-0.3-0.76a3.71,3.71,0,0,1-.25-0.95V15.3C22.07,11.08,29,7.37,33.14,7.37Zm-9.42,14h0Z"/><path class="cls-2" d="M23.92,21.35h0Z"/><path class="cls-3" d="M34.59,73.41c0,15.53-3.22,29.21-8.3,38.66A54.57,54.57,0,0,0,42.7,73c0-15.47-6.33-28.19-16.55-39.19H25.63C31.1,44.8,34.59,57.22,34.59,73.41Z"/><path d="M52,74.5l-0.38,1.07-0.21.9a0.81,0.81,0,0,0,.38.7,3.86,3.86,0,0,0,1.45.2v0.87l-2.87-.09-2.5.09V77.37A1.76,1.76,0,0,0,49.22,77a6.63,6.63,0,0,0,.87-1.64L57,58h1.6l6.88,17.36A7.51,7.51,0,0,0,66.29,77a2,2,0,0,0,1.39.38v0.87l-3.57-.09-3.37.09V77.37a3.8,3.8,0,0,0,1.63-.26,1.74,1.74,0,0,0,.26-0.2,0.9,0.9,0,0,0,.2-0.61,2.87,2.87,0,0,0-.18-0.9L62.3,74.5l-1.54-3.89H53.5Zm1.89-4.91h6.42l-3.23-8.24Z"/><path d="M68.26,70.7h7v1.57h-7V70.7Z"/><path d="M79,58L86.9,58h4.7L95.15,58v1L80.71,76.85h9.82q2.88,0,3.7-1t0.83-3.8V71.62h1v6.62l-9.9-.09h-5.4l-2,0-2,0v-0.9L91.28,59.23H84q-2.61,0-3.06.54A10.15,10.15,0,0,0,79.87,63H79V58Z"/><rect class="cls-4" x="29.46" y="11.26" width="75.01" height="1.88"/><rect class="cls-4" x="29.46" y="17.85" width="75.01" height="2.29"/></svg>