<svg id="Layer_1" data-name="Layer 1" xmlns="http://www.w3.org/2000/svg" viewBox="0 0 578.54 256"><defs><style>.cls-1{fill:#1a1a1a;}.cls-2{fill:#6cc;}.cls-3{fill:#edea77;}.cls-4{fill:#ceefed;}.cls-5{fill:#333;}</style></defs><title>freedict</title><path class="cls-1" d="M256,94.63v17.22H253.1q-1.62-10-3.29-11.59t-11.09-1.57H226.87v28.66l21.27-.1,1.82-8.91h2.43V140.2H250l-1.82-8.91H226.87v20.39q0,7.07,1.11,8.83t7.9,1.77v3L221.3,165l-13.37.3v-3q6.58,0,7.8-1.82t1.22-8.81V108.2q0-6.68-1.26-8.71t-7.75-2V94.53l7.49,0.3h6.18Z"/><path class="cls-1" d="M276.7,127.34v25.52q0,6.08,1.11,7.9t6,1.82v2.73l-12.05-.3-11.44.3v-2.73q5.06,0,6.13-1.83t1.06-7.82v-23q0-6-1.11-7.71-0.91-1.83-6.08-1.83v-2.63l16.41-1v7.9l8.1-6.08a10.39,10.39,0,0,1,5.87-1.82,8.12,8.12,0,0,1,2.58.51,4.76,4.76,0,0,1,2.43,2,5.72,5.72,0,0,1,1,3.19,3.65,3.65,0,0,1-.91,2.83L294,126.33l-1.72.41a3.78,3.78,0,0,1-3.14-1.93L288,123.49l-1.22-.61-1.52-.2A7.76,7.76,0,0,0,281,124.3Z"/><path class="cls-1" d="M340.8,138.08H307.68a60.14,60.14,0,0,0,.3,6.31,33.91,33.91,0,0,0,1.11,5.7,13.26,13.26,0,0,0,6,8.14,17.78,17.78,0,0,0,9.47,2.85,19,19,0,0,0,7.75-1.89q4.2-1.89,8.56-7.32l1,2.55a30.06,30.06,0,0,1-10.79,8.93,28.34,28.34,0,0,1-12.41,3l-4.25-.3a13,13,0,0,1-6-1.92,16.09,16.09,0,0,1-5.82-5.57,29.52,29.52,0,0,1-2.83-7.49q-0.41-1.92-.61-3.75a37.51,37.51,0,0,1-.2-4.15q0-8.81,2.83-14.23a21.28,21.28,0,0,1,7.5-8.35,22.18,22.18,0,0,1,7.9-3.44l3.85-.4h1.22a23.38,23.38,0,0,1,8.1,1.41,14.37,14.37,0,0,1,6.89,4.74,15.71,15.71,0,0,1,2.84,6.85q0.3,1.92.51,4T340.8,138.08Zm-12.27-2.73q2,0,2.59-.66a4,4,0,0,0,.56-2.48,15,15,0,0,0-1.73-7.49,7.74,7.74,0,0,0-4.37-4.05,15,15,0,0,0-4.88-1l-3.36.3a6.24,6.24,0,0,0-1.63.61,19.54,19.54,0,0,0-2.34,1.42,11.07,11.07,0,0,0-4,5.26,20,20,0,0,0-1.68,8.1h20.85Z"/><path class="cls-1" d="M388.71,138.08H355.59a60.14,60.14,0,0,0,.3,6.31,33.91,33.91,0,0,0,1.11,5.7,13.26,13.26,0,0,0,6,8.14,17.78,17.78,0,0,0,9.47,2.85,19,19,0,0,0,7.75-1.89q4.2-1.89,8.56-7.32l1,2.55A30.06,30.06,0,0,1,379,163.33a28.34,28.34,0,0,1-12.41,3l-4.25-.3a13,13,0,0,1-6-1.92,16.09,16.09,0,0,1-5.82-5.57,29.52,29.52,0,0,1-2.83-7.49q-0.41-1.92-.61-3.75a37.51,37.51,0,0,1-.2-4.15q0-8.81,2.83-14.23a21.28,21.28,0,0,1,7.5-8.35,22.18,22.18,0,0,1,7.9-3.44l3.85-.4h1.22a23.38,23.38,0,0,1,8.1,1.41,14.37,14.37,0,0,1,6.89,4.74,15.71,15.71,0,0,1,2.84,6.85q0.3,1.92.51,4T388.71,138.08Zm-12.27-2.73q2,0,2.59-.66a4,4,0,0,0,.56-2.48,15,15,0,0,0-1.73-7.49,7.74,7.74,0,0,0-4.37-4.05,15,15,0,0,0-4.88-1l-3.36.3a6.24,6.24,0,0,0-1.63.61,19.54,19.54,0,0,0-2.34,1.42,11.07,11.07,0,0,0-4,5.26,20,20,0,0,0-1.68,8.1h20.85Z"/><path class="cls-1" d="M446.64,162.18v2.33l-15.7,1.82v-7.19a35.93,35.93,0,0,1-9,5.24,24.54,24.54,0,0,1-9.16,1.95,21.19,21.19,0,0,1-7.3-1.52,11.79,11.79,0,0,1-6.24-5.23,24.9,24.9,0,0,1-3-7.76l-0.7-4.77-0.1-2.94a43.31,43.31,0,0,1,1.82-12.48,20,20,0,0,1,6.28-9.84,19.52,19.52,0,0,1,7-3.76,33.3,33.3,0,0,1,9.12-1.32,26.8,26.8,0,0,1,11.24,2v-15.9q0-6.08-1-7.75t-6.13-1.67V90.68l16.31-1v61.88q0,6.69,1.37,8.66T446.64,162.18Zm-38.08-37.07a19.42,19.42,0,0,0-2.83,6.38,37.58,37.58,0,0,0-.61,3.85,41.49,41.49,0,0,0-.2,4.35v2.48a24.51,24.51,0,0,0,.3,3.09q0.3,2.13.56,3.19a28.33,28.33,0,0,0,1,3,14.33,14.33,0,0,0,2.94,5.37,10.61,10.61,0,0,0,5,3.24q1.42,0.41,2.48.61a12,12,0,0,0,2.28.2,14.8,14.8,0,0,0,4.61-.71,11.61,11.61,0,0,0,3.49-1.72,7.23,7.23,0,0,0,2.23-1.72l1.22-1.32V130q0-2.23-.1-3.19a8.35,8.35,0,0,0-.66-2.28,6.18,6.18,0,0,0-2.73-2.58,19.32,19.32,0,0,0-4.25-1.87,13.93,13.93,0,0,0-3.9-.61,13.6,13.6,0,0,0-5.77,1.27A12.85,12.85,0,0,0,408.55,125.11Z"/><path class="cls-1" d="M461,165l-11.44.3v-2.73q5.06,0,6.13-1.83t1.06-7.82v-23a31.26,31.26,0,0,0-.61-7.16q-0.61-2.39-6.58-2.39v-2.63l16.41-1v36.16q0,6.08,1.11,7.9t6,1.82v2.73Zm0.3-70.39a5.26,5.26,0,0,1,4,1.57,5.66,5.66,0,0,1,1.52,4.1,5.59,5.59,0,0,1-9.52,3.85,5.65,5.65,0,0,1-1.22-1.72,5.73,5.73,0,0,1-.41-2.33,5.25,5.25,0,0,1,1.57-4A5.65,5.65,0,0,1,461.32,94.63Z"/><path class="cls-1" d="M518.54,155l1.52,1.22a30.9,30.9,0,0,1-10.13,7.65A26.29,26.29,0,0,1,499,166.33q-1,0-2.23-.1t-3.54-.51a14.17,14.17,0,0,1-5.57-2.79,20.34,20.34,0,0,1-5.77-7.34,31.77,31.77,0,0,1-2.23-12.76q0-3.34.15-4.66t0.66-3.65a29.5,29.5,0,0,1,3.34-8.25,18.48,18.48,0,0,1,7.29-6.89,20.86,20.86,0,0,1,10.23-2.68,28.42,28.42,0,0,1,8.91,1.11,10.59,10.59,0,0,1,5.22,3.09,7.08,7.08,0,0,1,1.77,4.71,5.79,5.79,0,0,1-.36,1.92,5.55,5.55,0,0,1-1.57,2.13,4.31,4.31,0,0,1-2.63.91,3.4,3.4,0,0,1-2.38-.71,5.31,5.31,0,0,1-1.27-2.23l-0.4-2a7.14,7.14,0,0,0-.76-1.77,10.07,10.07,0,0,0-1.37-1.82,7.24,7.24,0,0,0-2.73-1.57,10.6,10.6,0,0,0-3.65-.71,10.41,10.41,0,0,0-1.62.1q-0.61.1-3.39,0.66t-5.22,5.93a32.13,32.13,0,0,0-2.23,12.05,39.35,39.35,0,0,0,.91,8.56,22.6,22.6,0,0,0,2.94,7.29,14.55,14.55,0,0,0,5.32,5,13.56,13.56,0,0,0,6.63,1.82,19.4,19.4,0,0,0,7.14-1.22A35.63,35.63,0,0,0,518.54,155Z"/><path class="cls-1" d="M542.54,160a7.14,7.14,0,0,0,2.33.81l2.94,0.2q1.11,0,2.33-.1a17.93,17.93,0,0,0,2.53-.4l0.71,2.13q-1.93.91-3.65,1.57l-2.84,1.06a23.25,23.25,0,0,1-6.28,1,11.44,11.44,0,0,1-6-1.57,6.73,6.73,0,0,1-3.29-4.35,34.11,34.11,0,0,1-.66-7.55v-31.9h-8.1v-2.73q6.89-.61,8.05-1.47t4.1-7.75l2.33-6h2.43v14.79l12.26,0.41v2.43l-12,.61v32a12.09,12.09,0,0,0,.61,4.46A5,5,0,0,0,542.54,160Z"/><path class="cls-2" d="M32.81,54.16h0Z"/><path class="cls-2" d="M48.77,29.94H176.24v-1.4H48.77c-7.95,0-20.57,6.93-20.57,15.14v2c0,0.81-.16,3.32.17,3.83l0.5,167.32a10.64,10.64,0,0,0,10.64,10.64H165.57a10.31,10.31,0,0,0,10.31-10.32V59.83H49.09a18,18,0,0,1-7.47-2.12h0a36.54,36.54,0,0,1-8.67-6c-0.91-1.09-1.89-1.81-2.35-3-0.2-.52-0.33-0.73-0.52-1.31a6.42,6.42,0,0,1-.44-1.64v-2C29.6,36.36,41.54,29.94,48.77,29.94ZM32.46,54.16h0Z"/><path class="cls-3" d="M32.81,54.16h0Z"/><path class="cls-4" d="M51.28,144.32c0,26.89-5.57,50.56-14.37,66.92a94.41,94.41,0,0,0,28.41-67.62c0-26.79-11-48.83-28.65-67.83H35.77C45.23,94.79,51.28,116.29,51.28,144.32Z"/><path d="M81.45,146.19L80.78,148l-0.36,1.56a1.4,1.4,0,0,0,.65,1.2,6.68,6.68,0,0,0,2.51.35v1.51l-5-.15-4.32.15v-1.51a3,3,0,0,0,2.31-.68,11.49,11.49,0,0,0,1.51-2.84l12-30.06h2.77l11.91,30.06a13,13,0,0,0,1.41,2.86,3.4,3.4,0,0,0,2.41.65v1.51l-6.18-.15-5.83.15v-1.51a6.58,6.58,0,0,0,2.81-.45,3,3,0,0,0,.45-0.35,1.56,1.56,0,0,0,.35-1.06,5,5,0,0,0-.31-1.57l-0.61-1.54-2.67-6.74H84Zm3.28-8.5H95.84l-5.6-14.26Z"/><path d="M109.58,139.59h12.16v2.71H109.58v-2.71Z"/><path d="M128.18,117.58l13.67,0.1H150l6.13-.15v1.77l-25,31h17q5,0,6.41-1.71T156,142V141.2h1.66v11.46l-17.14-.15h-9.35q-1.16,0-3.49.08t-3.54.08V151.1l25.33-31.37H136.83q-4.52,0-5.3.93t-1.84,5.6h-1.51v-8.7Z"/><rect class="cls-5" x="42.4" y="36.69" width="129.88" height="3.26"/><rect class="cls-5" x="42.4" y="48.1" width="129.88" height="3.96"/></svg>