<svg id="Layer_1" data-name="Layer 1" xmlns="http://www.w3.org/2000/svg" viewBox="0 0 512 512"><defs><style>.cls-1{fill:#6cc;}.cls-2{fill:#edea77;}.cls-3{fill:#ceefed;}.cls-4{fill:#333;}</style></defs><title>freedict</title><path class="cls-1" d="M89,78.26H88.14a2.22,2.22,0,0,1-.47,0C88.11,78.26,88.54,78.26,89,78.26Z"/><path class="cls-1" d="M127.4,20h306.8V16.61H127.4c-19.13,0-49.51,16.67-49.51,36.44v4.77c0,1.95-.39,8,0.42,9.21L79.5,469.77a25.61,25.61,0,0,0,25.61,25.61H408.52a24.82,24.82,0,0,0,24.81-24.84V91.91H128.18c-5.28,0-11.6-2-18-5.11,0,0-.07,0-0.1,0A88,88,0,0,1,89.22,72.21c-2.19-2.62-4.55-4.35-5.66-7.28-0.47-1.24-.8-1.77-1.26-3.15a15.46,15.46,0,0,1-1.05-4V53C81.25,35.44,110,20,127.4,20ZM88.14,78.26a2.22,2.22,0,0,1-.47,0c0.44,0,.87,0,1.31,0H88.14Z"/><path class="cls-2" d="M89,78.26H88.14a2.22,2.22,0,0,1-.47,0C88.11,78.26,88.54,78.26,89,78.26Z"/><path class="cls-3" d="M133.43,296.13c0,64.73-13.41,121.28-34.6,160.66,42.23-41.94,68.38-97.9,68.38-162.14,0-64.48-26.37-119.65-69-162.65H96.11C118.87,175,133.43,228.65,133.43,296.13Z"/><path d="M206.05,299.77l-1.6,4.47L203.59,308a3.36,3.36,0,0,0,1.57,2.9,16.08,16.08,0,0,0,6,.85v3.63l-12-.36-10.41.36v-3.63q4.11,0,5.57-1.63t3.63-6.83l28.79-72.35h6.66l28.68,72.35a31.29,31.29,0,0,0,3.39,6.9q1.57,1.58,5.81,1.57v3.63L256.46,315l-14,.36v-3.63a15.84,15.84,0,0,0,6.78-1.09,7.27,7.27,0,0,0,1.09-.85,3.75,3.75,0,0,0,.85-2.55,12,12,0,0,0-.75-3.77l-1.47-3.7-6.43-16.23H212.25Zm7.89-20.46h26.74L227.21,245Z"/><path d="M273.76,283.9H303v6.53H273.76V283.9Z"/><path d="M318.53,230.91l32.91,0.24H371l14.76-.36V235l-60.17,74.52h40.92q12,0,15.44-4.11t3.45-15.85v-1.82h4v27.59L348.17,315h-22.5q-2.78,0-8.41.18t-8.53.18v-3.75l61-75.5H339.34q-10.89,0-12.76,2.24t-4.42,13.49h-3.63V230.91Z"/><rect class="cls-4" x="112.06" y="36.22" width="312.62" height="7.84"/><rect class="cls-4" x="112.06" y="63.67" width="312.62" height="9.52"/></svg>